<svg width="16" height="16" viewBox="0 0 16 16" fill="none" xmlns="http://www.w3.org/2000/svg">
  <g clip-path="url(#clip0_375_6556)">
    <path
      d="M16 8.00098C16 12.421 12.42 16.001 8 16.001C3.58 16.001 0 12.421 0 8.00098C0 3.58098 3.58 0.000976562 8 0.000976562C12.42 0.000976562 16 3.58098 16 8.00098ZM14.7533 8.00098C14.7533 4.27431 11.72 1.24764 8 1.24764C4.28 1.24764 1.24667 4.27431 1.24667 8.00098C1.24667 11.7276 4.28 14.7543 8 14.7543C11.72 14.7543 14.7533 11.721 14.7533 8.00098ZM7.36667 11.9343V7.59431C7.36667 7.42764 7.35333 7.30098 7.3 7.21431L7.15333 6.94764C7.06 6.78764 7.04 6.70764 7.03333 6.66764C7.03333 6.64764 7.06 6.63431 7.13333 6.63431H8.58667C8.69333 6.63431 8.78 6.66098 8.85333 6.70764C8.92 6.74764 8.95333 6.84764 8.95333 7.00098V11.5743C8.95333 11.7276 8.92 11.8276 8.85333 11.8676C8.78 11.9143 8.68667 11.941 8.58667 11.941H7.36667V11.9343ZM8.41333 5.76764C8.52 5.72098 8.61333 5.66098 8.69333 5.58098C8.77333 5.50098 8.83333 5.40764 8.88 5.30764C8.92667 5.20098 8.94667 5.08764 8.94667 4.96098C8.94667 4.83431 8.92 4.72098 8.88 4.61431C8.83333 4.50764 8.77333 4.41431 8.69333 4.33431C8.61333 4.25431 8.52 4.19431 8.41333 4.14764C8.30667 4.10098 8.18667 4.08098 8.06667 4.08098C7.94667 4.08098 7.82667 4.10098 7.72 4.14764C7.61333 4.19431 7.52 4.25431 7.44 4.33431C7.36 4.41431 7.3 4.50764 7.25333 4.61431C7.20667 4.72098 7.18667 4.84098 7.18667 4.96098C7.18667 5.08098 7.21333 5.20098 7.25333 5.30764C7.3 5.41431 7.36 5.50764 7.44 5.58098C7.52 5.65431 7.61333 5.72098 7.72 5.76764C7.82667 5.81431 7.94 5.83431 8.06667 5.83431C8.19333 5.83431 8.30667 5.81431 8.41333 5.76764Z"
      fill="current"
    />
  </g>
  <defs>
    <clipPath id="clip0_375_6556">
      <rect width="16" height="16" fill="white" transform="translate(0 0.000976562)" />
    </clipPath>
  </defs>
</svg>
