<svg width="28" height="28" viewBox="0 0 28 28" fill="none" xmlns="http://www.w3.org/2000/svg">
  <g clip-path="url(#clip0_87_4719)">
    <path
      d="M14 0C6.272 0 0 6.272 0 14C0 21.728 6.272 28 14 28C21.728 28 28 21.728 28 14C28 6.272 21.728 0 14 0ZM14 6.79C15.652 6.79 16.996 8.134 16.996 9.8C16.996 11.452 15.652 12.796 14 12.796C12.348 12.796 11.004 11.452 11.004 9.786C11.004 8.134 12.348 6.79 14 6.79ZM6.79 19.096C6.902 16.198 10.136 13.916 14 14C17.864 13.916 21.084 16.198 21.21 19.096C21.21 21.91 6.79 21.91 6.79 19.096Z"
      fill="current"
    />
  </g>
  <defs>
    <clipPath id="clip0_87_4719">
      <rect width="28" height="28" fill="white" />
    </clipPath>
  </defs>
</svg>
