<svg width="20" height="20" viewBox="0 0 20 20" fill="none" xmlns="http://www.w3.org/2000/svg">
  <g clip-path="url(#clip0_18_1017)">
    <path
      d="M20 18.5923L13.134 11.7262C15.3075 8.8615 15.0948 4.75382 12.4826 2.14831C9.62451 -0.709785 4.99174 -0.709785 2.14029 2.14166C-0.711152 4.99311 -0.711152 9.63252 2.14029 12.484C3.56269 13.9064 5.43707 14.6242 7.31145 14.6242C8.86678 14.6242 10.4221 14.1257 11.7249 13.1353L18.5909 20.0014L20 18.5923ZM3.5494 11.0682C1.47562 8.99444 1.47562 5.62455 3.5494 3.55077C4.58629 2.51388 5.94887 1.99543 7.31145 1.99543C8.67402 1.99543 10.0366 2.51388 11.0735 3.55077C13.1473 5.62455 13.1473 8.99444 11.0735 11.0682C8.99971 13.142 5.62318 13.142 3.55605 11.0682H3.5494Z"
      fill="current"
    />
  </g>
  <defs>
    <clipPath id="clip0_18_1017">
      <rect width="20" height="20" fill="white" transform="translate(0 0.000976562)" />
    </clipPath>
  </defs>
</svg>
